<svg width="18" height="20" viewBox="0 0 18 20" fill="none" xmlns="http://www.w3.org/2000/svg">
<path d="M0.809957 17.5428C0.374222 18.1368 0.502525 18.9716 1.09653 19.4073C1.69054 19.8431 2.5253 19.7148 2.96104 19.1208L0.809957 17.5428ZM15.4298 1.46249C15.3179 0.734348 14.6369 0.234801 13.9088 0.346716L2.0431 2.17046C1.31496 2.28237 0.815417 2.96337 0.92733 3.6915C1.03924 4.41964 1.72024 4.91918 2.44838 4.80727L12.9956 3.18617L14.6167 13.7334C14.7287 14.4616 15.4096 14.9611 16.1378 14.8492C16.8659 14.7373 17.3655 14.0563 17.2535 13.3282L15.4298 1.46249ZM2.96104 19.1208L15.1869 2.45409L13.0359 0.876155L0.809957 17.5428L2.96104 19.1208Z" fill="white"/>
</svg>
