<svg width="12" height="12" viewBox="0 0 12 12" fill="none" xmlns="http://www.w3.org/2000/svg">
<path d="M0.828195 10.6724C1.32341 10.1772 2.55212 9.92694 3.66803 9.80146C5.10563 9.63728 6.56526 9.69935 7.97082 10.0384C9.02467 10.2927 10.2013 10.7018 10.8394 11.3398M10.8394 11.3398C10.2013 10.7018 9.79152 9.52449 9.5379 8.47131C9.19953 7.06508 9.13746 5.60545 9.30031 4.16918C9.42645 3.0526 9.67806 1.82257 10.1719 1.32868M10.8394 11.3398L0.828194 1.32868L10.8394 11.3398Z" fill="white"/>
<path d="M0.828195 10.6724C1.32341 10.1772 2.55212 9.92694 3.66803 9.80146C5.10563 9.63728 6.56526 9.69935 7.97082 10.0384C9.02467 10.2927 10.2013 10.7018 10.8394 11.3398M10.8394 11.3398C10.2013 10.7018 9.79152 9.52449 9.5379 8.47131C9.19953 7.06508 9.13746 5.60545 9.30031 4.16918C9.42645 3.0526 9.67806 1.82257 10.1719 1.32868M10.8394 11.3398L0.828195 1.32868" stroke="#FD573E" stroke-width="1.70069"/>
</svg>
